<svg viewBox="0 0 24 24" fill="none" xmlns="http://www.w3.org/2000/svg">
    <path d="M4 17L10 17M10 17C10 14.7909 8.20914 13 6 13L4 13C5.10457 13 6 12.1046 6 11V7C6 5.89543 5.10457 5 4 5" stroke="currentColor" stroke-width="2" stroke-linecap="round" stroke-linejoin="round"/>
    <path d="M7 17L13 17M13 17C13 14.7909 11.2091 13 9 13L7 13" stroke="currentColor" stroke-width="2" stroke-linecap="round" stroke-linejoin="round" opacity="0.5"/>
    <path d="M10 7L16 7M16 7C18.2091 7 20 8.79086 20 11V15C20 16.1046 19.1046 17 18 17H16" stroke="currentColor" stroke-width="2" stroke-linecap="round" stroke-linejoin="round"/>
</svg>
